# xmcd
#
# Track frame offsets: 
#        150
#        11505
#        22587
#        32446
#        45579
#        56515
#        69657
#        85308
#        98381
#        112373
#        126292
#        142114
#        152829
#        167276
#        182044
#        193552
#        209454
#        228977
#        255652
#        280101
#
# Disc length: 3900 seconds
#
# Revision: 2
# Processed by: cddbd v1.5.2PL0 Copyright (c) Steve Scherf et al.
# Submitted via: ExactAudioCopyFreeDBPlugin 1.0
#
DISCID=080f3a14
DTITLE=Sly and the Family Stone - Higher! [box set]
DYEAR=2013
DGENRE=Soul
TTITLE0=I Just Learned How To Swim (as "Sly Stewart")
TTITLE1=Scat Swim (as "Sly Stewart")
TTITLE2=Buttermilk (Part One) (as "Sly")
TTITLE3=Dance All Night (as "Sly and Freddie")
TTITLE4=Temptation Walk (Part One) (as "Sly")
TTITLE5=I Ain't Got Nobody (For Real)
TTITLE6=I Can't Turn You Loose
TTITLE7=Higher
TTITLE8=Underdog
TTITLE9=Bad Risk
TTITLE10=Let Me Hear It From You
TTITLE11=Advice
TTITLE12=If This Room Could Talk
TTITLE13=I Cannot Make It
TTITLE14=Trip To Your Heart
TTITLE15=I Hate To Love Her
TTITLE16=Silent Communication (previously unissued)
TTITLE17=I Get High On You (version one) (previously unissued)
TTITLE18=I Remember (previously unissued)
TTITLE19=My Woman's Head (instrumental) (previously unissued)
EXTD=
EXTT0=
EXTT1=
EXTT2=
EXTT3=
EXTT4=
EXTT5=
EXTT6=
EXTT7=
EXTT8=
EXTT9=
EXTT10=
EXTT11=
EXTT12=
EXTT13=
EXTT14=
EXTT15=
EXTT16=
EXTT17=
EXTT18=
EXTT19=
PLAYORDER=
